<svg width="79" height="75" viewBox="0 0 79 75" fill="none" xmlns="http://www.w3.org/2000/svg">
<path d="M75.2177 20.5806C74.3564 19.6697 73.6084 18.3693 73.42 17.1538C72.4241 10.7182 69.411 5.83227 64.1936 2.84322C64.1412 3.54303 64.1979 4.24425 64.4869 4.94689C64.5747 5.1608 64.5761 5.38746 64.5917 5.61553C64.6526 6.50233 64.1228 7.15822 63.7332 7.86936C63.2941 8.75474 62.7515 9.57354 62.148 10.3555C62.0531 10.5014 61.9653 10.6516 61.8619 10.7904C61.1352 11.7707 60.4056 12.7482 59.6775 13.7256C59.55 14.2455 59.6973 14.6974 60.0189 15.1068C60.5373 15.4737 61.1479 15.6508 61.7131 15.9214C62.7133 16.4002 62.9314 17.0986 62.3506 18.0604C62.2401 18.2772 62.1565 18.5138 62.012 18.7064C61.6111 19.2391 61.7259 19.7051 62.1424 20.1542C62.3818 20.3199 62.6212 20.4857 62.8818 20.667C62.794 20.7265 62.7118 20.786 62.6254 20.8398C61.7712 21.3753 61.6834 21.8938 62.3322 22.68C62.6325 23.0441 62.9314 23.4067 63.1864 23.8076C63.6596 24.5513 63.8565 25.3248 63.6001 26.2017C63.4485 26.7188 63.372 27.2571 63.2615 27.7869C63.2686 27.8917 63.2827 27.9965 63.2827 28.1014C63.2771 29.7262 63.7701 30.341 65.3807 30.6527C66.6557 30.8992 67.9349 30.7859 69.2141 30.6584C70.5018 30.5309 71.7781 30.2433 73.0899 30.4884C75.314 30.9034 76.8567 32.6019 76.6895 34.6149C76.6102 35.574 76.5082 36.533 76.3495 37.4836C76.9757 36.6336 77.5253 35.6703 77.9942 34.5937C80.0611 29.8466 78.8484 24.4224 75.2177 20.5806Z" fill="#7AB7E4"/>
<path d="M30.2048 33.6276H19.8027C18.7955 33.6276 17.9795 34.4436 17.9795 35.4508V45.8529C17.9795 46.8601 18.7955 47.6761 19.8027 47.6761H30.2048C31.212 47.6761 32.028 46.8601 32.028 45.8529V35.4508C32.028 34.4436 31.212 33.6276 30.2048 33.6276Z" fill="#7AB7E4"/>
<path d="M14.5827 32.0311H21.8272C22.8344 32.0311 23.6504 31.2151 23.6504 30.2079V22.9633C23.6504 21.9561 22.8344 21.1402 21.8272 21.1402H14.5827C13.5755 21.1402 12.7595 21.9561 12.7595 22.9633V30.2079C12.7595 31.2151 13.5755 32.0311 14.5827 32.0311Z" fill="#7AB7E4"/>
<path d="M11.5042 29.9203V25.9708C11.5042 24.9636 10.6882 24.1476 9.68097 24.1476H5.73146C4.72425 24.1476 3.90829 24.9636 3.90829 25.9708V29.9203C3.90829 30.9275 4.72425 31.7435 5.73146 31.7435H9.68097C10.6882 31.7435 11.5042 30.9275 11.5042 29.9203Z" fill="#7AB7E4"/>
<path d="M16.4526 38.4228V35.5924C16.4526 34.5852 15.6366 33.7692 14.6294 33.7692H11.799C10.7918 33.7692 9.97581 34.5852 9.97581 35.5924V38.4228C9.97581 39.43 10.7918 40.246 11.799 40.246H14.6294C15.6366 40.246 16.4526 39.43 16.4526 38.4228Z" fill="#7AB7E4"/>
<path d="M14.6434 41.5082H13.8699C12.8627 41.5082 12.0467 42.3241 12.0467 43.3314V44.1048C12.0467 45.112 12.8627 45.928 13.8699 45.928H14.6434C15.6506 45.928 16.4666 45.112 16.4666 44.1048V43.3314C16.4666 42.3256 15.6506 41.5082 14.6434 41.5082Z" fill="#7AB7E4"/>
<path d="M6.50507 33.5313H1.82318C0.815966 33.5313 0 34.3472 0 35.3544V40.0363C0 41.0435 0.815966 41.8595 1.82318 41.8595H6.50507C7.51228 41.8595 8.32825 41.0435 8.32825 40.0363V35.3544C8.32825 34.3486 7.51087 33.5313 6.50507 33.5313Z" fill="#7AB7E4"/>
<path d="M68.2621 37.5828C67.0749 36.8192 65.7561 36.6195 64.3876 36.7583C63.2373 36.8745 62.0941 37.0515 60.9382 37.1167C59.8516 37.179 58.7651 37.1833 57.7197 36.8036C57.68 36.7824 57.6389 36.7625 57.5992 36.7413C56.6487 36.3956 56.2549 35.8432 56.2209 34.8614C56.1968 34.1531 56.2577 33.4505 56.4702 32.7819C56.796 31.7477 56.7195 30.7859 56.126 29.8722C55.7789 29.4373 55.4219 29.0108 55.0904 28.566C54.8383 28.226 54.7136 27.8507 54.9757 27.4469C55.0465 27.3492 55.1173 27.25 55.1882 27.1523C55.3695 26.9752 55.5678 26.8208 55.7548 26.7046C55.5239 26.6692 55.3525 26.5403 55.2292 26.3405C55.1698 26.3434 55.1173 26.3278 55.0862 26.2598C54.5861 25.7243 54.5677 25.1874 55.0054 24.5868C55.2335 24.2751 55.3879 23.9096 55.565 23.5612C55.5848 23.4082 55.6117 23.19 55.6302 23.037C55.4857 22.3712 55.0805 21.9731 54.4374 21.7649C54.0081 21.6261 53.5945 21.4277 53.195 21.2167C52.5844 20.8951 52.3181 20.1174 52.6057 19.5068C52.7927 19.1102 53.1114 18.8028 53.4047 18.4812C53.8679 17.8494 54.3396 17.2232 54.7943 16.5858C55.8681 15.0771 56.9051 13.5471 57.5907 11.8104C57.6205 11.265 57.5624 10.7352 57.3867 10.2139C57.1969 9.64863 57.0822 9.0664 57.1856 8.46576C57.3442 7.53646 57.5525 6.61992 57.8585 5.72745C57.8925 5.57588 57.8981 5.41438 58.0101 5.2883C58.282 4.1451 58.7297 3.05998 59.1788 1.98052C59.3303 1.61645 59.4847 1.25522 59.6448 0.895397C52.7629 -1.20685 46.4477 0.442082 40.8322 5.3223C39.9724 6.07027 38.6918 6.559 37.5443 6.712C31.3551 7.54213 26.6392 10.4646 23.4887 15.9299C22.8484 17.0419 21.8922 18.1086 20.8297 18.8155C20.6881 18.9104 20.5478 19.0068 20.4104 19.1045C20.2432 19.2249 20.3296 19.4898 20.5365 19.4898H24.2976C24.8911 19.4898 25.3714 19.97 25.3714 20.5636V30.3821H25.3487V30.8128C25.3487 31.4559 25.87 31.9772 26.5132 31.9772H32.215C33.0607 31.9772 33.7478 32.6629 33.7478 33.51V42.276C38.0939 42.2802 42.4415 42.2646 46.7877 42.2632C53.3012 42.2632 59.8162 42.3043 66.3298 42.2491C67.7804 42.2363 69.1234 42.0493 70.3558 41.6881C70.3374 41.5323 70.3176 41.3779 70.2977 41.222C70.0994 39.7261 69.4605 38.5064 68.2621 37.5828Z" fill="#7AB7E4"/>
<path d="M23.6651 52.46L19.0427 65.9305L18.8444 52.46H16.0494L11.427 65.9305L11.2287 52.3948C10.8476 52.3651 10.5529 52.3509 10.3489 52.3509C9.14482 52.3509 7.94212 52.6257 6.73942 53.1768C5.5353 53.7264 4.54934 54.4461 3.77871 55.3343C3.00807 56.2225 2.62275 57.1362 2.62275 58.074C2.62275 58.8376 2.81683 59.383 3.20639 59.7144C3.59454 60.0445 4.18527 60.2103 4.97857 60.2103C4.97857 60.1805 4.92758 60.0601 4.82416 59.8476C4.72075 59.6351 4.66975 59.2569 4.66975 58.7143C4.66975 57.5116 4.95591 56.4945 5.52822 55.6658C6.10053 54.8371 6.90658 54.2237 7.9492 53.8284L8.30194 68.8615H11.4709L15.6527 57.659L15.9162 68.8615H19.0852L25.2035 52.4642H23.6651V52.46Z" fill="#272727"/>
<path d="M38.4562 56.6645C38.9407 56.6645 39.3544 56.4959 39.7 56.1587C40.0442 55.8216 40.2171 55.4108 40.2171 54.9263C40.2171 54.4418 40.0442 54.0282 39.7 53.6825C39.3558 53.3383 38.9407 53.1654 38.4562 53.1654C37.9718 53.1654 37.5609 53.3383 37.2238 53.6825C36.8866 54.0267 36.7181 54.4418 36.7181 54.9263C36.7181 55.4108 36.8866 55.8216 37.2238 56.1587C37.5609 56.4959 37.9718 56.6645 38.4562 56.6645Z" fill="#272727"/>
<path d="M56.1297 57.7425C55.1466 57.7425 54.2881 58.0584 53.5543 58.6888L53.9071 57.0385H50.7381L49.0665 64.9176C48.6996 65.2548 48.1712 65.6217 47.4813 66.0183C47.5394 65.7988 47.5692 65.5197 47.5692 65.1825C47.5692 64.7859 47.5323 64.1484 47.4587 63.2673C47.283 61.0815 47.1583 59.0486 47.0847 57.1702L43.8279 57.6108C43.4468 58.8291 43.0431 59.9623 42.6167 61.0121C42.1903 62.0618 41.6916 63.1001 41.1193 64.1258C40.7963 64.2872 40.5215 64.5479 40.2934 64.9077C40.0668 65.2675 39.952 65.6897 39.952 66.1728C39.952 66.1898 39.9535 66.2053 39.9535 66.2209C39.9237 66.2521 39.8954 66.2847 39.8642 66.3158C39.4973 66.6757 39.1007 66.8556 38.6757 66.8556C38.3527 66.8556 38.1218 66.7932 37.983 66.6686C37.8427 66.5439 37.7733 66.3357 37.7733 66.041C37.7733 65.7917 37.8031 65.5565 37.8611 65.337L39.4463 57.853H36.2774L34.78 64.9176C34.78 64.9176 34.78 64.9176 34.78 64.9191C34.5165 65.5792 34.2516 66.0665 33.9881 66.3824C33.7246 66.6983 33.3719 66.8556 32.9313 66.8556C32.6083 66.8556 32.3817 66.7748 32.2485 66.6133C32.1168 66.4518 32.0502 66.2252 32.0502 65.9305C32.0502 65.6812 32.0969 65.3398 32.1933 64.9077C32.2882 64.4757 32.3944 64.0308 32.512 63.5761C32.7018 62.8281 32.8492 62.1935 32.9526 61.6722C33.0546 61.1509 33.107 60.6777 33.107 60.2527C33.107 59.4169 32.8874 58.7922 32.4469 58.3814C32.0063 57.9706 31.4127 57.7652 30.6633 57.7652C29.6802 57.7652 28.8217 58.176 28.0879 58.9976L29.2765 53.4516L26.0197 53.8922L22.8281 68.8587H25.997L27.4944 61.794C27.67 61.192 27.9052 60.7046 28.1984 60.3307C28.4917 59.9567 28.8288 59.7697 29.2113 59.7697C29.7397 59.7697 30.0032 60.1437 30.0032 60.8916C30.0032 61.2005 29.9522 61.6042 29.8488 62.1028C29.7454 62.6015 29.6363 63.1086 29.5187 63.6214C29.489 63.7249 29.4337 63.9586 29.353 64.3255C29.2722 64.6924 29.1957 65.0706 29.1221 65.4588C29.0484 65.8484 29.0116 66.1954 29.0116 66.5042C29.0116 67.2083 29.2212 67.799 29.6391 68.2764C30.057 68.7538 30.7143 68.9918 31.6096 68.9918C32.3732 68.9918 33.1098 68.717 33.8224 68.1659C34.1241 67.9322 34.4103 67.6021 34.6823 67.1771C34.78 67.6559 34.9684 68.0413 35.2532 68.3303C35.6852 68.7708 36.2547 68.9904 36.9588 68.9904C37.7946 68.9904 38.6389 68.7085 39.4902 68.1433C39.7636 67.9619 40.02 67.7282 40.2609 67.442C40.275 67.4704 40.2892 67.4987 40.3034 67.527C40.5385 67.9605 40.8983 68.3118 41.3814 68.5838C41.8659 68.8558 42.4594 68.9904 43.1649 68.9904C43.7953 68.9904 44.4229 68.8842 45.0462 68.6717C45.6695 68.4592 46.1936 68.1248 46.62 67.6701C47.419 67.2125 48.15 66.6898 48.8115 66.1048L47.0592 74.3608L50.3825 73.5689L51.5272 68.1985C51.836 68.7269 52.4593 68.9904 53.3985 68.9904C54.7188 68.9904 55.7827 68.5767 56.5901 67.7466C57.3976 66.9179 57.9685 65.9121 58.3071 64.7307C58.6442 63.5492 58.8128 62.3791 58.8128 61.2203C58.8128 59.9878 58.5706 59.0996 58.0861 58.5571C57.6044 58.0145 56.9514 57.7425 56.1297 57.7425ZM43.8265 66.7663C43.4596 67.0893 43.0048 67.2508 42.4623 67.2508C41.992 67.2508 41.652 67.1261 41.4395 66.8768C41.2723 66.6813 41.1717 66.3994 41.1363 66.0325C41.1647 65.9716 41.193 65.9093 41.2199 65.8469C41.3276 65.9461 41.4919 65.9971 41.7143 65.9971C41.9934 65.9971 42.2243 65.8866 42.407 65.667C42.5898 65.4475 42.6819 65.1981 42.6819 64.9191C42.6819 64.5819 42.5133 64.3255 42.1761 64.1484C43.0119 62.5349 43.6069 61.148 43.9596 59.9893C44.0035 60.5616 44.0985 61.6835 44.2458 63.3565C44.3336 64.1484 44.3775 64.7646 44.3775 65.2052C44.3775 65.9234 44.1934 66.4433 43.8265 66.7663ZM55.4809 63.7178C55.2684 64.6343 54.9313 65.4234 54.468 66.0835C54.0062 66.7437 53.4226 67.0737 52.7185 67.0737C52.278 67.0737 51.9989 66.9051 51.8827 66.568L53.1818 60.4057C53.3872 60.0686 53.6252 59.8037 53.8972 59.6139C54.1691 59.4226 54.4369 59.3277 54.7004 59.3277C55.4342 59.3277 55.8011 59.9368 55.8011 61.1551C55.7997 61.947 55.6934 62.8012 55.4809 63.7178Z" fill="#272727"/>
<path d="M75.9722 58.3361C75.7002 58.0131 75.3305 57.8516 74.8602 57.8516C74.3899 57.8516 73.9535 57.9692 73.5512 58.2043C73.1475 58.4395 72.6956 58.7766 72.1969 59.2172L72.4831 57.853H69.3142L67.8154 64.9205C67.1411 65.667 66.522 66.2252 65.9568 66.5907C65.3916 66.9576 64.713 67.1403 63.9211 67.1403C63.363 67.1403 62.9592 67.0114 62.7099 66.755C62.4606 66.4986 62.3359 66.0098 62.3359 65.2916C62.3359 65.1457 62.3501 64.8511 62.3798 64.4105C63.261 64.3524 64.0897 64.113 64.8674 63.6951C65.6451 63.2772 66.2684 62.7233 66.7387 62.0334C67.2076 61.3435 67.4428 60.5885 67.4428 59.7668C67.4428 58.3587 66.6353 57.6533 65.0218 57.6533C63.642 57.6533 62.5045 58.0967 61.6106 58.9849C60.7153 59.8731 60.0694 60.9256 59.6741 62.1439C59.2775 63.3622 59.0791 64.4771 59.0791 65.49C59.0791 66.6927 59.3795 67.578 59.9815 68.1418C60.5836 68.7071 61.4265 68.989 62.513 68.989C64.4155 68.989 66.0758 68.139 67.4924 66.4405L66.9796 68.8558H70.1485L71.9094 60.4922C72.2465 60.1833 72.5214 59.968 72.7353 59.8433C72.9478 59.7187 73.2084 59.6564 73.5172 59.6564C73.6348 59.6564 73.7155 59.7003 73.7595 59.7881C73.8034 59.8759 73.8473 60.0162 73.8912 60.206C73.9493 60.4992 74.0343 60.7231 74.1448 60.8775C74.2553 61.0319 74.4706 61.1084 74.7936 61.1084C75.2922 61.1084 75.6818 60.9469 75.9595 60.6239C76.2385 60.3009 76.3774 59.9269 76.3774 59.5019C76.3788 59.0486 76.2428 58.6591 75.9722 58.3361ZM63.6463 60.2074C64.152 59.2824 64.6691 58.8206 65.1975 58.8206C65.5644 58.8206 65.7471 59.1209 65.7471 59.7229C65.7471 60.325 65.597 60.8973 65.2966 61.4399C64.9963 61.9824 64.5997 62.4301 64.1081 62.7828C63.6165 63.1355 63.0995 63.3254 62.5569 63.3551C62.7765 62.1807 63.1406 61.1325 63.6463 60.2074Z" fill="#272727"/>
</svg>
