<svg width="14" height="14" viewBox="0 0 14 14" fill="none" xmlns="http://www.w3.org/2000/svg">
<path d="M2 0C1.46957 0 0.960859 0.210714 0.585786 0.585786C0.210714 0.960859 0 1.46957 0 2V4C0 4.53043 0.210714 5.03914 0.585786 5.41421C0.960859 5.78929 1.46957 6 2 6H4C4.53043 6 5.03914 5.78929 5.41421 5.41421C5.78929 5.03914 6 4.53043 6 4V2C6 1.46957 5.78929 0.960859 5.41421 0.585786C5.03914 0.210714 4.53043 0 4 0H2ZM2 8C1.46957 8 0.960859 8.21071 0.585786 8.58579C0.210714 8.96086 0 9.46957 0 10V12C0 12.5304 0.210714 13.0391 0.585786 13.4142C0.960859 13.7893 1.46957 14 2 14H4C4.53043 14 5.03914 13.7893 5.41421 13.4142C5.78929 13.0391 6 12.5304 6 12V10C6 9.46957 5.78929 8.96086 5.41421 8.58579C5.03914 8.21071 4.53043 8 4 8H2ZM8 2C8 1.46957 8.21071 0.960859 8.58579 0.585786C8.96086 0.210714 9.46957 0 10 0H12C12.5304 0 13.0391 0.210714 13.4142 0.585786C13.7893 0.960859 14 1.46957 14 2V4C14 4.53043 13.7893 5.03914 13.4142 5.41421C13.0391 5.78929 12.5304 6 12 6H10C9.46957 6 8.96086 5.78929 8.58579 5.41421C8.21071 5.03914 8 4.53043 8 4V2ZM8 10C8 9.46957 8.21071 8.96086 8.58579 8.58579C8.96086 8.21071 9.46957 8 10 8H12C12.5304 8 13.0391 8.21071 13.4142 8.58579C13.7893 8.96086 14 9.46957 14 10V12C14 12.5304 13.7893 13.0391 13.4142 13.4142C13.0391 13.7893 12.5304 14 12 14H10C9.46957 14 8.96086 13.7893 8.58579 13.4142C8.21071 13.0391 8 12.5304 8 12V10Z" fill="#252C32"/>
</svg>
