<svg width="50" height="50" viewBox="0 0 50 50" fill="none" xmlns="http://www.w3.org/2000/svg">
<path d="M41.2292 31.1041C36.9375 35.375 30.7917 36.6875 25.3958 35L15.5833 44.7916C14.875 45.5208 13.4792 45.9583 12.4792 45.8125L7.9375 45.1875C6.4375 44.9791 5.04167 43.5625 4.8125 42.0625L4.1875 37.5208C4.04167 36.5208 4.52084 35.125 5.20834 34.4166L15 24.625C13.3333 19.2083 14.625 13.0625 18.9167 8.79163C25.0625 2.64579 35.0417 2.64579 41.2083 8.79163C47.375 14.9375 47.375 24.9583 41.2292 31.1041Z" stroke="#1A4CA1" stroke-width="4" stroke-miterlimit="10" stroke-linecap="round" stroke-linejoin="round"/>
<path d="M14.3542 36.4375L19.1458 41.2292" stroke="#1A4CA1" stroke-width="4" stroke-miterlimit="10" stroke-linecap="round" stroke-linejoin="round"/>
<path d="M30.2083 22.9166C31.9342 22.9166 33.3333 21.5175 33.3333 19.7916C33.3333 18.0657 31.9342 16.6666 30.2083 16.6666C28.4824 16.6666 27.0833 18.0657 27.0833 19.7916C27.0833 21.5175 28.4824 22.9166 30.2083 22.9166Z" stroke="#1A4CA1" stroke-width="4" stroke-linecap="round" stroke-linejoin="round"/>
</svg>
