<svg width="50" height="50" viewBox="0 0 50 50" fill="none" xmlns="http://www.w3.org/2000/svg">
<path d="M45.125 21.7501L43.0834 30.4584C41.3334 37.9792 37.875 41.0209 31.375 40.3959C30.3334 40.3126 29.2084 40.1251 28 39.8334L24.5 39.0001C15.8125 36.9376 13.125 32.6459 15.1667 23.9376L17.2084 15.2084C17.625 13.4376 18.125 11.8959 18.75 10.6251C21.1875 5.58339 25.3334 4.22922 32.2917 5.87506L35.7709 6.68756C44.5 8.72922 47.1667 13.0417 45.125 21.7501Z" stroke="#1A4CA1" stroke-width="4" stroke-linecap="round" stroke-linejoin="round"/>
<path d="M31.375 40.3958C30.0833 41.2708 28.4583 42 26.4791 42.6458L23.1875 43.7292C14.9166 46.3958 10.5625 44.1667 7.87498 35.8958L5.20831 27.6667C2.54165 19.3958 4.74998 15.0208 13.0208 12.3542L16.3125 11.2708C17.1666 11 17.9791 10.7708 18.75 10.625C18.125 11.8958 17.625 13.4375 17.2083 15.2083L15.1666 23.9375C13.125 32.6458 15.8125 36.9375 24.5 39L28 39.8333C29.2083 40.125 30.3333 40.3125 31.375 40.3958Z" stroke="#1A4CA1" stroke-width="4" stroke-linecap="round" stroke-linejoin="round"/>
<path d="M26.3333 17.7709L36.4375 20.3334" stroke="#1A4CA1" stroke-width="4" stroke-linecap="round" stroke-linejoin="round"/>
<path d="M24.2917 25.8334L30.3334 27.375" stroke="#1A4CA1" stroke-width="4" stroke-linecap="round" stroke-linejoin="round"/>
</svg>
