<svg width="24" height="19" viewBox="0 0 24 19" fill="none" xmlns="http://www.w3.org/2000/svg">
<path d="M20.9666 4.92548C21.8501 4.26292 22.6451 3.46785 23.2635 2.54027C22.4684 2.89363 21.5409 3.15865 20.6133 3.247C21.585 2.67278 22.2918 1.78936 22.6451 0.685097C21.7617 1.21515 20.7458 1.61268 19.7299 1.83353C18.8465 0.905951 17.6538 0.375903 16.3287 0.375903C13.7668 0.375903 11.6908 2.45192 11.6908 5.01382C11.6908 5.36719 11.735 5.72055 11.8233 6.07392C7.98047 5.85307 4.53516 3.9979 2.23828 1.21515C1.84075 1.87771 1.61989 2.67278 1.61989 3.55619C1.61989 5.14633 2.41496 6.5598 3.69591 7.39904C2.94501 7.35487 2.19411 7.17819 1.57572 6.82482V6.86899C1.57572 9.1217 3.16587 10.9769 5.28606 11.4186C4.93269 11.5069 4.49099 11.5953 4.09345 11.5953C3.78426 11.5953 3.51923 11.5511 3.21004 11.5069C3.78426 13.3621 5.50691 14.6872 7.53876 14.7314C5.94862 15.9681 3.96094 16.7191 1.79658 16.7191C1.39904 16.7191 1.04567 16.6749 0.692308 16.6307C2.72416 17.9558 5.15355 18.7067 7.80379 18.7067C16.3287 18.7067 20.9666 11.6836 20.9666 5.54387C20.9666 5.32302 20.9666 5.14633 20.9666 4.92548Z" fill="#272727"/>
</svg>
