<svg width="22" height="22" viewBox="0 0 22 22" fill="none" xmlns="http://www.w3.org/2000/svg">
<path d="M11 5.89719C8.06 5.89719 5.71719 8.28594 5.71719 11.18C5.71719 14.12 8.06 16.4628 11 16.4628C13.8941 16.4628 16.2828 14.12 16.2828 11.18C16.2828 8.28594 13.8941 5.89719 11 5.89719ZM11 14.6253C9.11656 14.6253 7.55469 13.1094 7.55469 11.18C7.55469 9.29656 9.07063 7.78062 11 7.78062C12.8834 7.78062 14.3994 9.29656 14.3994 11.18C14.3994 13.1094 12.8834 14.6253 11 14.6253ZM17.7069 5.71344C17.7069 5.02437 17.1556 4.47312 16.4666 4.47312C15.7775 4.47312 15.2263 5.02437 15.2263 5.71344C15.2263 6.4025 15.7775 6.95375 16.4666 6.95375C17.1556 6.95375 17.7069 6.4025 17.7069 5.71344ZM21.1981 6.95375C21.1063 5.3 20.7388 3.83 19.5444 2.63562C18.35 1.44125 16.88 1.07375 15.2263 0.981875C13.5266 0.89 8.4275 0.89 6.72781 0.981875C5.07406 1.07375 3.65 1.44125 2.40969 2.63562C1.21531 3.83 0.847813 5.3 0.755938 6.95375C0.664063 8.65344 0.664063 13.7525 0.755938 15.4522C0.847813 17.1059 1.21531 18.53 2.40969 19.7703C3.65 20.9647 5.07406 21.3322 6.72781 21.4241C8.4275 21.5159 13.5266 21.5159 15.2263 21.4241C16.88 21.3322 18.35 20.9647 19.5444 19.7703C20.7388 18.53 21.1063 17.1059 21.1981 15.4522C21.29 13.7525 21.29 8.65344 21.1981 6.95375ZM18.9931 17.2437C18.6716 18.1625 17.9366 18.8516 17.0638 19.2191C15.6856 19.7703 12.47 19.6325 11 19.6325C9.48406 19.6325 6.26844 19.7703 4.93625 19.2191C4.0175 18.8516 3.32844 18.1625 2.96094 17.2437C2.40969 15.9116 2.5475 12.6959 2.5475 11.18C2.5475 9.71 2.40969 6.49437 2.96094 5.11625C3.32844 4.24344 4.0175 3.55437 4.93625 3.18687C6.26844 2.63562 9.48406 2.77344 11 2.77344C12.47 2.77344 15.6856 2.63562 17.0638 3.18687C17.9366 3.50844 18.6256 4.24344 18.9931 5.11625C19.5444 6.49437 19.4066 9.71 19.4066 11.18C19.4066 12.6959 19.5444 15.9116 18.9931 17.2437Z" fill="#272727"/>
</svg>
