<svg width="22" height="23" viewBox="0 0 22 23" fill="none" xmlns="http://www.w3.org/2000/svg">
<path d="M7.33383 17.7915C7.33383 17.7031 7.24549 17.6148 7.11298 17.6148C6.98047 17.6148 6.89213 17.7031 6.89213 17.7915C6.89213 17.8798 6.98047 17.9681 7.11298 17.924C7.24549 17.924 7.33383 17.8798 7.33383 17.7915ZM5.96454 17.5706C5.96454 17.659 6.05288 17.7915 6.1854 17.7915C6.27374 17.8356 6.40625 17.7915 6.45042 17.7031C6.45042 17.6148 6.40625 17.5264 6.27374 17.4823C6.14123 17.4381 6.00871 17.4823 5.96454 17.5706ZM7.95222 17.5264C7.81971 17.5264 7.73137 17.6148 7.73137 17.7473C7.73137 17.8356 7.86388 17.8798 7.99639 17.8356C8.12891 17.7915 8.21725 17.7473 8.17308 17.659C8.17308 17.5706 8.04056 17.4823 7.95222 17.5264ZM10.8233 0.564905C4.72776 0.564905 0.0456734 5.247 0.0456734 11.3425C0.0456734 16.2455 3.09345 20.4417 7.51052 21.9435C8.08474 22.0319 8.26142 21.6785 8.26142 21.4135C8.26142 21.1043 8.26142 19.6025 8.26142 18.6749C8.26142 18.6749 5.16947 19.3374 4.50691 17.3498C4.50691 17.3498 4.02103 16.0688 3.3143 15.7596C3.3143 15.7596 2.29838 15.0529 3.35847 15.0529C3.35847 15.0529 4.46274 15.1412 5.08113 16.2013C6.05288 17.924 7.64303 17.4381 8.30559 17.1289C8.39393 16.4222 8.65895 15.9363 9.01232 15.6271C6.53876 15.3621 4.02103 15.0087 4.02103 10.7683C4.02103 9.53155 4.3744 8.95733 5.08113 8.16226C4.94862 7.85307 4.59525 6.70463 5.21364 5.15865C6.09706 4.89363 8.26142 6.35126 8.26142 6.35126C9.14483 6.08624 10.0724 5.9979 11 5.9979C11.9718 5.9979 12.8993 6.08624 13.7828 6.35126C13.7828 6.35126 15.9029 4.84946 16.8305 5.15865C17.4489 6.70463 17.0514 7.85307 16.963 8.16226C17.6698 8.95733 18.1115 9.53155 18.1115 10.7683C18.1115 15.0087 15.5054 15.3621 13.0319 15.6271C13.4294 15.9805 13.7828 16.643 13.7828 17.7031C13.7828 19.1608 13.7386 21.0159 13.7386 21.3693C13.7386 21.6785 13.9594 22.0319 14.5337 21.8993C18.9507 20.4417 21.9543 16.2455 21.9543 11.3425C21.9543 5.247 16.963 0.564905 10.8233 0.564905ZM4.33023 15.8038C4.24189 15.848 4.28606 15.9805 4.33023 16.0688C4.41857 16.113 4.50691 16.1572 4.59525 16.113C4.63942 16.0688 4.63942 15.9363 4.55108 15.848C4.46274 15.8038 4.3744 15.7596 4.33023 15.8038ZM3.84435 15.4504C3.80018 15.5388 3.84435 15.5829 3.93269 15.6271C4.02103 15.6713 4.10938 15.6713 4.15355 15.5829C4.15355 15.5388 4.10938 15.4946 4.02103 15.4504C3.93269 15.4063 3.88852 15.4063 3.84435 15.4504ZM5.25781 17.0406C5.21364 17.0847 5.21364 17.2172 5.34615 17.3056C5.4345 17.3939 5.56701 17.4381 5.61118 17.3498C5.65535 17.3056 5.65535 17.1731 5.56701 17.0847C5.47867 16.9964 5.34615 16.9522 5.25781 17.0406ZM4.77194 16.378C4.68359 16.4222 4.68359 16.5547 4.77194 16.643C4.86028 16.7314 4.94862 16.7755 5.03696 16.7314C5.08113 16.6872 5.08113 16.5547 5.03696 16.4663C4.94862 16.378 4.86028 16.3338 4.77194 16.378Z" fill="#272727"/>
</svg>
