<svg width="50" height="50" viewBox="0 0 50 50" fill="none" xmlns="http://www.w3.org/2000/svg">
<path d="M43.5625 23.1666C43.5625 33.3541 36.1667 42.8957 26.0625 45.6874C25.375 45.8749 24.625 45.8749 23.9375 45.6874C13.8333 42.8957 6.43749 33.3541 6.43749 23.1666V14.0207C6.43749 12.3124 7.72919 10.3749 9.33336 9.72906L20.9375 4.97913C23.5416 3.91663 26.4792 3.91663 29.0833 4.97913L40.6875 9.72906C42.2708 10.3749 43.5834 12.3124 43.5834 14.0207L43.5625 23.1666Z" stroke="#1A4CA1" stroke-width="4" stroke-linecap="round" stroke-linejoin="round"/>
<path d="M25 26.0417C27.3012 26.0417 29.1667 24.1762 29.1667 21.875C29.1667 19.5739 27.3012 17.7084 25 17.7084C22.6988 17.7084 20.8333 19.5739 20.8333 21.875C20.8333 24.1762 22.6988 26.0417 25 26.0417Z" stroke="#1A4CA1" stroke-width="4" stroke-miterlimit="10" stroke-linecap="round" stroke-linejoin="round"/>
<path d="M25 26.0417V32.2917" stroke="#1A4CA1" stroke-width="4" stroke-miterlimit="10" stroke-linecap="round" stroke-linejoin="round"/>
</svg>
