<svg width="251" height="273" viewBox="0 0 251 273" fill="none" xmlns="http://www.w3.org/2000/svg">
<path opacity="0.0833333" fillRule="evenodd" clipRule="evenodd" d="M9.50176 182.235C-3.20987 194.665 -25.5211 193.407 -42.439 189.257C-58.4414 185.332 -66.079 168.563 -79.9855 160.287C-94.3664 151.728 -114.388 152.316 -125.31 139.939C-137.016 126.672 -141.543 108.343 -141.55 90.5159C-141.557 71.8543 -142.203 47.0245 -125.35 36.9598C-105.881 25.3334 -80.8761 49.83 -59.7279 41.653C-41.7756 34.7117 -43.2941 -3.99066 -24.4916 -2.0371C-4.95974 -0.00776693 -17.4183 39.0851 -0.325056 47.8249C19.5557 57.99 49.8018 31.711 67.4919 44.9942C82.0741 55.9438 76.8076 82.4268 67.4809 98.7395C58.2176 114.941 30.5106 112.981 19.8122 128.388C8.93585 144.051 23.2596 168.783 9.50176 182.235Z" stroke="url(#paint0_linear_1_230)" strokeOpacity="0.3" strokeWidth="1.29063"/>
<path opacity="0.166667" fillRule="evenodd" clipRule="evenodd" d="M3.86968 170.211C-10.1739 180.968 -32.0641 176.965 -48.2806 170.761C-63.6197 164.892 -69.1596 147.317 -81.9079 137.392C-95.091 127.129 -114.94 125.239 -124.249 111.615C-134.227 97.0124 -136.508 78.2752 -134.383 60.5945C-132.159 42.086 -129.828 17.3815 -111.976 9.4812C-91.3532 0.355153 -69.5806 27.7376 -47.7113 22.2399C-29.1468 17.573 -26.0193 -20.9974 -7.67847 -16.7378C11.3738 -12.3131 -5.60786 24.9184 10.2331 35.697C28.6573 48.2334 61.6786 25.9068 77.5659 41.2651C90.662 53.9252 82.2929 79.539 71.1289 94.5652C60.0408 109.489 32.9041 104.124 20.4933 118.082C7.87617 132.273 19.0691 158.569 3.86968 170.211Z" stroke="url(#paint1_linear_1_230)" strokeOpacity="0.3" strokeWidth="1.29063"/>
<path opacity="0.25" fillRule="evenodd" clipRule="evenodd" d="M-0.0939478 157.792C-15.2527 166.738 -36.3868 160.074 -51.6544 151.924C-66.0958 144.215 -69.4556 126.097 -80.8517 114.682C-92.6366 102.877 -112.009 98.5617 -119.565 83.9C-127.664 68.1844 -127.666 49.3136 -123.445 32.0329C-119.026 13.943 -113.758 -10.2812 -95.1815 -15.924C-73.7224 -22.4424 -55.5118 7.40289 -33.2573 4.63777C-14.3658 2.29051 -6.64601 -35.5928 10.9527 -29.1112C29.234 -22.3781 7.99503 12.4731 22.3424 25.1153C39.0295 39.8192 74.3166 21.7285 88.1598 38.9202C99.571 53.0916 88.2313 77.4754 75.4033 91.0108C62.6624 104.454 36.5114 95.7936 22.5805 108.116C8.41798 120.644 16.3124 148.111 -0.0939478 157.792Z" stroke="url(#paint2_linear_1_230)" strokeOpacity="0.3" strokeWidth="1.29063"/>
<path opacity="0.333333" fillRule="evenodd" clipRule="evenodd" d="M-2.36557 145.188C-18.4086 152.211 -38.4662 143.012 -52.5533 133.055C-65.8782 123.637 -67.008 105.245 -76.8795 92.5218C-87.0878 79.3645 -105.69 72.7109 -111.379 57.2355C-117.477 40.6476 -115.201 21.9194 -108.949 5.28587C-102.403 -12.1265 -94.2798 -35.523 -75.2614 -38.85C-53.2921 -42.6932 -38.9183 -10.8452 -16.6169 -10.8663C2.31448 -10.8841 14.5071 -47.5364 31.0967 -38.9502C48.3298 -30.0311 23.1582 1.95763 35.7949 16.2599C50.4923 32.8945 87.5081 19.2586 99.098 38.0142C108.652 53.4747 94.5152 76.2865 80.2189 88.1499C66.0197 99.9328 41.2509 88.1376 26.0123 98.6624C10.5202 109.362 14.9979 137.587 -2.36557 145.188Z" stroke="url(#paint3_linear_1_230)" strokeOpacity="0.3" strokeWidth="1.29063"/>
<path opacity="0.416667" fillRule="evenodd" clipRule="evenodd" d="M-2.94619 132.607C-19.6323 137.625 -38.3119 126.053 -51.007 114.456C-63.0152 103.487 -61.8982 85.0939 -70.0969 71.2639C-78.5754 56.9621 -96.1276 48.0942 -99.8643 32.0415C-103.87 14.835 -99.3504 -3.47692 -91.1609 -19.2259C-82.5879 -35.7122 -71.7309 -57.9461 -52.5567 -58.9339C-30.4075 -60.075 -20.0862 -26.7147 1.92701 -24.0215C20.6137 -21.7354 37.0953 -56.6313 52.4266 -46.0901C68.3526 -35.1401 39.6271 -6.45257 50.3633 9.28116C62.8503 27.5807 101.038 18.5508 110.201 38.5773C117.754 55.0856 101.033 76.0074 85.4835 86.0427C70.0395 96.01 47.0252 81.2882 30.708 89.8803C14.1194 98.6152 15.1133 127.175 -2.94619 132.607Z" stroke="url(#paint4_linear_1_230)" strokeOpacity="0.3" strokeWidth="1.29063"/>
<path opacity="0.5" fillRule="evenodd" clipRule="evenodd" d="M-1.85709 120.254C-18.9383 123.216 -35.9623 109.47 -47.0766 96.4236C-57.5896 84.083 -54.2424 65.963 -60.6465 51.2444C-67.269 36.0237 -83.5103 25.0982 -85.2392 8.71343C-87.0924 -8.84904 -80.3972 -26.4771 -70.3924 -41.1173C-59.9191 -56.4429 -46.49 -77.1966 -27.4451 -75.8568C-5.4452 -74.3091 0.67025 -39.9494 22.068 -34.6127C40.2321 -30.0824 60.7578 -62.7228 74.6029 -50.4053C88.985 -37.61 57.1327 -12.6131 65.8088 4.30207C75.8997 23.9757 114.692 19.6344 121.291 40.6199C126.731 57.9186 107.675 76.6605 91.1032 84.7392C74.644 92.763 53.7262 75.3665 36.573 81.9198C19.1346 88.582 16.6299 117.049 -1.85709 120.254Z" stroke="url(#paint5_linear_1_230)" strokeOpacity="0.3" strokeWidth="1.29063"/>
<path opacity="0.583333" fillRule="evenodd" clipRule="evenodd" d="M0.85106 108.33C-16.374 109.213 -31.4926 93.5247 -40.8632 79.2409C-49.7268 65.7301 -44.1993 48.1522 -48.7151 32.7761C-53.3848 16.8755 -68.0768 4.07939 -67.773 -12.3874C-67.4474 -30.0378 -58.6753 -46.7247 -47.0026 -60.0482C-34.7834 -73.9956 -18.9804 -92.9736 -0.344655 -89.3522C21.1826 -85.1688 23.0034 -50.3374 43.4713 -42.4666C60.8461 -35.7852 85.1131 -65.7045 97.2689 -51.8155C109.896 -37.3879 75.3859 -16.4164 81.875 1.41282C89.4222 22.1496 128.249 22.5101 132.188 44.1284C135.435 61.9487 114.324 78.2532 96.9744 84.2754C79.7422 90.2568 61.2278 70.4767 43.491 74.9153C25.4592 79.4277 19.4938 107.374 0.85106 108.33Z" stroke="url(#paint6_linear_1_230)" strokeOpacity="0.3" strokeWidth="1.29063"/>
<path opacity="0.666667" fillRule="evenodd" clipRule="evenodd" d="M5.10383 97.0261C-12.0145 95.8397 -25.0094 78.4671 -32.5015 63.1763C-39.5883 48.713 -31.9626 31.9386 -34.5259 16.1456C-37.1767 -0.186178 -50.107 -14.6384 -47.7766 -30.9362C-45.2788 -48.4055 -34.5589 -63.9075 -21.3896 -75.7261C-7.60362 -88.0979 10.3415 -105.031 28.2975 -99.2071C49.0395 -92.4797 46.5427 -57.7108 65.7839 -47.4525C82.1174 -38.7445 109.77 -65.517 120.061 -50.2843C130.751 -34.4608 94.087 -17.7906 98.2965 0.672014C103.192 22.1454 141.488 27.1523 142.713 49.0681C143.722 67.1337 120.865 80.7791 102.99 84.6753C85.2358 88.545 69.3921 66.7073 51.3301 68.9863C32.9676 71.3032 23.6311 98.3101 5.10383 97.0261Z" stroke="url(#paint7_linear_1_230)" strokeOpacity="0.3" strokeWidth="1.29063"/>
<path opacity="0.75" fillRule="evenodd" clipRule="evenodd" d="M10.805 86.5222C-5.96024 83.3048 -16.6478 64.5313 -22.1568 48.4781C-27.3676 33.2935 -17.7571 17.5719 -18.3344 1.60844C-18.9314 -14.8996 -29.9167 -30.77 -25.5968 -46.6504C-20.9663 -63.6724 -8.45654 -77.7635 6.01729 -87.9105C21.1688 -98.5327 40.994 -113.181 58.0126 -105.266C77.6719 -96.1228 70.9008 -61.9492 88.6402 -49.4844C103.699 -38.9032 134.332 -62.1493 142.614 -45.82C151.216 -28.8572 112.93 -16.7015 114.803 2.10509C116.982 23.9785 154.197 33.5089 152.693 55.3832C151.454 73.4146 127.183 84.2177 109.041 85.949C91.0215 87.6687 78.0722 64.1287 59.9456 64.2344C41.5175 64.342 28.9501 90.0045 10.805 86.5222Z" stroke="url(#paint8_linear_1_230)" strokeOpacity="0.3" strokeWidth="1.29063"/>
<path opacity="0.833333" fillRule="evenodd" clipRule="evenodd" d="M17.8404 76.9849C1.66694 71.8042 -6.56707 51.9325 -10.0195 35.3716C-13.2852 19.7069 -1.83285 5.27188 -0.421367 -10.6138C1.03826 -27.0414 -7.85053 -44.0721 -1.60833 -59.2934C5.08257 -75.6088 19.1985 -88.0836 34.7663 -96.4171C51.0629 -105.141 72.4796 -117.298 88.3203 -107.433C106.619 -96.0367 95.6823 -62.9813 111.671 -48.5222C125.243 -36.248 158.411 -55.6396 164.57 -38.4756C170.968 -20.6458 131.611 -13.1526 131.128 5.70415C130.566 27.6359 166.17 41.5026 161.968 62.9976C158.504 80.7162 133.17 88.5352 115.021 88.0942C96.9946 87.6561 87.1167 62.7927 69.1849 60.7428C50.9548 58.6589 35.345 82.5921 17.8404 76.9849Z" stroke="url(#paint9_linear_1_230)" strokeOpacity="0.3" strokeWidth="1.29063"/>
<path opacity="0.916667" fillRule="evenodd" clipRule="evenodd" d="M26.0729 68.563C10.7187 61.5143 5.04531 40.8616 3.69003 24.0544C2.40808 8.15662 15.532 -4.7772 18.9041 -20.3388C22.3912 -36.4312 15.7168 -54.3486 23.7847 -68.6792C32.4326 -84.0398 47.9476 -94.7168 64.3835 -101.121C81.589 -107.825 104.286 -117.321 118.729 -105.674C135.412 -92.2189 120.482 -60.7871 134.499 -44.5736C146.398 -30.8101 181.62 -46.075 185.577 -28.3495C189.688 -9.93644 149.825 -7.18672 147.001 11.4267C143.717 33.0755 177.212 51.03 170.382 71.8144C164.751 88.9474 138.719 93.6833 120.821 91.0932C103.044 88.5207 96.3654 62.7304 78.8824 58.5731C61.1086 54.3467 42.6908 76.1918 26.0729 68.563Z" stroke="url(#paint10_linear_1_230)" strokeOpacity="0.3" strokeWidth="1.29063"/>
<path fillRule="evenodd" clipRule="evenodd" d="M35.3517 61.3877C21.0299 52.5926 17.9837 31.4856 18.7334 14.6956C19.4425 -1.18594 34.0429 -12.4263 39.3171 -27.4233C44.7712 -42.9318 40.3937 -61.4511 50.1631 -74.6731C60.6347 -88.8455 77.3211 -97.5694 94.3876 -101.956C112.253 -106.549 135.902 -113.253 148.749 -100.016C163.589 -84.7245 144.9 -55.3961 156.758 -37.6917C166.823 -22.6628 203.588 -33.5887 205.3 -15.5815C207.078 3.12421 167.277 1.11703 162.166 19.1985C156.221 40.2287 187.143 61.9657 177.796 81.72C170.09 98.0038 143.732 99.6021 126.337 94.9167C109.061 90.263 105.659 63.9537 88.8697 57.7668C71.8017 51.4771 50.8522 70.9067 35.3517 61.3877Z" stroke="url(#paint11_linear_1_230)" strokeOpacity="0.3" strokeWidth="1.29063"/>
<defs>
<linearGradient id="paint0_linear_1_230" x1="149.143" y1="169.875" x2="-118.198" y2="-45.7689" gradientUnits="userSpaceOnUse">
<stop stopColor="#FFC881"/>
<stop offset="1" stopColor="#DA8517"/>
</linearGradient>
<linearGradient id="paint1_linear_1_230" x1="143.295" y1="175.199" x2="-96.0586" y2="-70.6696" gradientUnits="userSpaceOnUse">
<stop stopColor="#FFC881"/>
<stop offset="1" stopColor="#DA8517"/>
</linearGradient>
<linearGradient id="paint2_linear_1_230" x1="136.979" y1="179.887" x2="-71.0018" y2="-92.6019" gradientUnits="userSpaceOnUse">
<stop stopColor="#FFC881"/>
<stop offset="1" stopColor="#DA8517"/>
</linearGradient>
<linearGradient id="paint3_linear_1_230" x1="130.274" y1="183.889" x2="-43.4092" y2="-111.242" gradientUnits="userSpaceOnUse">
<stop stopColor="#FFC881"/>
<stop offset="1" stopColor="#DA8517"/>
</linearGradient>
<linearGradient id="paint4_linear_1_230" x1="123.267" y1="187.161" x2="-13.6963" y2="-126.316" gradientUnits="userSpaceOnUse">
<stop stopColor="#FFC881"/>
<stop offset="1" stopColor="#DA8517"/>
</linearGradient>
<linearGradient id="paint5_linear_1_230" x1="116.054" y1="189.673" x2="17.6978" y2="-137.601" gradientUnits="userSpaceOnUse">
<stop stopColor="#FFC881"/>
<stop offset="1" stopColor="#DA8517"/>
</linearGradient>
<linearGradient id="paint6_linear_1_230" x1="108.729" y1="191.405" x2="50.3061" y2="-144.931" gradientUnits="userSpaceOnUse">
<stop stopColor="#FFC881"/>
<stop offset="1" stopColor="#DA8517"/>
</linearGradient>
<linearGradient id="paint7_linear_1_230" x1="101.388" y1="192.349" x2="83.6459" y2="-148.194" gradientUnits="userSpaceOnUse">
<stop stopColor="#FFC881"/>
<stop offset="1" stopColor="#DA8517"/>
</linearGradient>
<linearGradient id="paint8_linear_1_230" x1="94.1281" y1="192.511" x2="117.227" y2="-147.337" gradientUnits="userSpaceOnUse">
<stop stopColor="#FFC881"/>
<stop offset="1" stopColor="#DA8517"/>
</linearGradient>
<linearGradient id="paint9_linear_1_230" x1="87.0478" y1="191.906" x2="150.558" y2="-142.369" gradientUnits="userSpaceOnUse">
<stop stopColor="#FFC881"/>
<stop offset="1" stopColor="#DA8517"/>
</linearGradient>
<linearGradient id="paint10_linear_1_230" x1="80.2381" y1="190.562" x2="183.151" y2="-133.353" gradientUnits="userSpaceOnUse">
<stop stopColor="#FFC881"/>
<stop offset="1" stopColor="#DA8517"/>
</linearGradient>
<linearGradient id="paint11_linear_1_230" x1="73.789" y1="188.52" x2="214.531" y2="-120.414" gradientUnits="userSpaceOnUse">
<stop stopColor="#FFC881"/>
<stop offset="1" stopColor="#DA8517"/>
</linearGradient>
</defs>
</svg>
