<svg width="50" height="50" viewBox="0 0 50 50" fill="none" xmlns="http://www.w3.org/2000/svg">
<path d="M35.3333 12.8541C39.5 15.75 42.375 20.3541 42.9583 25.6666" stroke="#1A4CA1" strokeWidth="4" strokeLinecap="round" strokeLinejoin="round"/>
<path d="M7.27084 25.7709C7.81251 20.4792 10.6458 15.875 14.7708 12.9584" stroke="#1A4CA1" strokeWidth="4" strokeLinecap="round" strokeLinejoin="round"/>
<path d="M17.0625 43.625C19.4792 44.8542 22.2292 45.5417 25.125 45.5417C27.9167 45.5417 30.5417 44.9167 32.8958 43.7708" stroke="#1A4CA1" strokeWidth="4" strokeLinecap="round" strokeLinejoin="round"/>
<path d="M25.125 16.0417C28.3237 16.0417 30.9167 13.4487 30.9167 10.25C30.9167 7.05139 28.3237 4.45837 25.125 4.45837C21.9264 4.45837 19.3333 7.05139 19.3333 10.25C19.3333 13.4487 21.9264 16.0417 25.125 16.0417Z" stroke="#1A4CA1" strokeWidth="4" strokeLinecap="round" strokeLinejoin="round"/>
<path d="M10.0625 41.5C13.2612 41.5 15.8542 38.9069 15.8542 35.7083C15.8542 32.5096 13.2612 29.9166 10.0625 29.9166C6.86386 29.9166 4.27084 32.5096 4.27084 35.7083C4.27084 38.9069 6.86386 41.5 10.0625 41.5Z" stroke="#1A4CA1" strokeWidth="4" strokeLinecap="round" strokeLinejoin="round"/>
<path d="M39.9375 41.5C43.1362 41.5 45.7292 38.9069 45.7292 35.7083C45.7292 32.5096 43.1362 29.9166 39.9375 29.9166C36.7389 29.9166 34.1458 32.5096 34.1458 35.7083C34.1458 38.9069 36.7389 41.5 39.9375 41.5Z" stroke="#1A4CA1" strokeWidth="4" strokeLinecap="round" strokeLinejoin="round"/>
</svg>
